<svg id="testSVG" viewBox="0 0 300 300" xmlns="http://www.w3.org/2000/svg" style="background: rgb(255, 255, 255); max-width: inherit; max-height: inherit;" data-reuse="d324b8bbf22bf7ad1725bbe6d509c277"><svg width="300" height="300"><defs><clipPath id="clip-path-dot-color"><rect x="5" y="125" width="10" height="10" transform="rotate(0,10,130)"/><rect x="5" y="135" width="10" height="10" transform="rotate(0,10,140)"/><rect x="5" y="145" width="10" height="10" transform="rotate(0,10,150)"/><rect x="5" y="155" width="10" height="10" transform="rotate(0,10,160)"/><rect x="5" y="195" width="10" height="10" transform="rotate(0,10,200)"/><rect x="5" y="205" width="10" height="10" transform="rotate(0,10,210)"/><rect x="15" y="85" width="10" height="10" transform="rotate(0,20,90)"/><rect x="15" y="95" width="10" height="10" transform="rotate(0,20,100)"/><rect x="15" y="105" width="10" height="10" transform="rotate(0,20,110)"/><rect x="15" y="125" width="10" height="10" transform="rotate(0,20,130)"/><rect x="15" y="135" width="10" height="10" transform="rotate(0,20,140)"/><rect x="15" y="145" width="10" height="10" transform="rotate(0,20,150)"/><rect x="15" y="195" width="10" height="10" transform="rotate(0,20,200)"/><rect x="25" y="105" width="10" height="10" transform="rotate(0,30,110)"/><rect x="25" y="125" width="10" height="10" transform="rotate(0,30,130)"/><rect x="25" y="135" width="10" height="10" transform="rotate(0,30,140)"/><rect x="25" y="145" width="10" height="10" transform="rotate(0,30,150)"/><rect x="25" y="155" width="10" height="10" transform="rotate(0,30,160)"/><rect x="25" y="165" width="10" height="10" transform="rotate(0,30,170)"/><rect x="25" y="195" width="10" height="10" transform="rotate(0,30,200)"/><rect x="35" y="85" width="10" height="10" transform="rotate(0,40,90)"/><rect x="35" y="95" width="10" height="10" transform="rotate(0,40,100)"/><rect x="35" y="105" width="10" height="10" transform="rotate(0,40,110)"/><rect x="35" y="155" width="10" height="10" transform="rotate(0,40,160)"/><rect x="35" y="175" width="10" height="10" transform="rotate(0,40,180)"/><rect x="35" y="205" width="10" height="10" transform="rotate(0,40,210)"/><rect x="45" y="85" width="10" height="10" transform="rotate(0,50,90)"/><rect x="45" y="105" width="10" height="10" transform="rotate(0,50,110)"/><rect x="45" y="115" width="10" height="10" transform="rotate(0,50,120)"/><rect x="45" y="125" width="10" height="10" transform="rotate(0,50,130)"/><rect x="45" y="135" width="10" height="10" transform="rotate(0,50,140)"/><rect x="45" y="145" width="10" height="10" transform="rotate(0,50,150)"/><rect x="45" y="155" width="10" height="10" transform="rotate(0,50,160)"/><rect x="45" y="165" width="10" height="10" transform="rotate(0,50,170)"/><rect x="45" y="195" width="10" height="10" transform="rotate(0,50,200)"/><rect x="45" y="205" width="10" height="10" transform="rotate(0,50,210)"/><rect x="55" y="95" width="10" height="10" transform="rotate(0,60,100)"/><rect x="55" y="105" width="10" height="10" transform="rotate(0,60,110)"/><rect x="55" y="135" width="10" height="10" transform="rotate(0,60,140)"/><rect x="55" y="165" width="10" height="10" transform="rotate(0,60,170)"/><rect x="55" y="205" width="10" height="10" transform="rotate(0,60,210)"/><rect x="65" y="85" width="10" height="10" transform="rotate(0,70,90)"/><rect x="65" y="105" width="10" height="10" transform="rotate(0,70,110)"/><rect x="65" y="125" width="10" height="10" transform="rotate(0,70,130)"/><rect x="65" y="145" width="10" height="10" transform="rotate(0,70,150)"/><rect x="65" y="165" width="10" height="10" transform="rotate(0,70,170)"/><rect x="65" y="185" width="10" height="10" transform="rotate(0,70,190)"/><rect x="65" y="205" width="10" height="10" transform="rotate(0,70,210)"/><rect x="75" y="85" width="10" height="10" transform="rotate(0,80,90)"/><rect x="75" y="95" width="10" height="10" transform="rotate(0,80,100)"/><rect x="75" y="105" width="10" height="10" transform="rotate(0,80,110)"/><rect x="75" y="125" width="10" height="10" transform="rotate(0,80,130)"/><rect x="75" y="135" width="10" height="10" transform="rotate(0,80,140)"/><rect x="75" y="155" width="10" height="10" transform="rotate(0,80,160)"/><rect x="75" y="165" width="10" height="10" transform="rotate(0,80,170)"/><rect x="75" y="175" width="10" height="10" transform="rotate(0,80,180)"/><rect x="75" y="185" width="10" height="10" transform="rotate(0,80,190)"/><rect x="75" y="195" width="10" height="10" transform="rotate(0,80,200)"/><rect x="85" y="15" width="10" height="10" transform="rotate(0,90,20)"/><rect x="85" y="35" width="10" height="10" transform="rotate(0,90,40)"/><rect x="85" y="45" width="10" height="10" transform="rotate(0,90,50)"/><rect x="85" y="55" width="10" height="10" transform="rotate(0,90,60)"/><rect x="85" y="65" width="10" height="10" transform="rotate(0,90,70)"/><rect x="85" y="85" width="10" height="10" transform="rotate(0,90,90)"/><rect x="85" y="105" width="10" height="10" transform="rotate(0,90,110)"/><rect x="85" y="135" width="10" height="10" transform="rotate(0,90,140)"/><rect x="85" y="145" width="10" height="10" transform="rotate(0,90,150)"/><rect x="85" y="155" width="10" height="10" transform="rotate(0,90,160)"/><rect x="85" y="195" width="10" height="10" transform="rotate(0,90,200)"/><rect x="85" y="215" width="10" height="10" transform="rotate(0,90,220)"/><rect x="85" y="225" width="10" height="10" transform="rotate(0,90,230)"/><rect x="85" y="245" width="10" height="10" transform="rotate(0,90,250)"/><rect x="85" y="255" width="10" height="10" transform="rotate(0,90,260)"/><rect x="85" y="275" width="10" height="10" transform="rotate(0,90,280)"/><rect x="95" y="15" width="10" height="10" transform="rotate(0,100,20)"/><rect x="95" y="35" width="10" height="10" transform="rotate(0,100,40)"/><rect x="95" y="75" width="10" height="10" transform="rotate(0,100,80)"/><rect x="95" y="115" width="10" height="10" transform="rotate(0,100,120)"/><rect x="95" y="155" width="10" height="10" transform="rotate(0,100,160)"/><rect x="95" y="185" width="10" height="10" transform="rotate(0,100,190)"/><rect x="95" y="215" width="10" height="10" transform="rotate(0,100,220)"/><rect x="95" y="245" width="10" height="10" transform="rotate(0,100,250)"/><rect x="95" y="255" width="10" height="10" transform="rotate(0,100,260)"/><rect x="95" y="275" width="10" height="10" transform="rotate(0,100,280)"/><rect x="105" y="5" width="10" height="10" transform="rotate(0,110,10)"/><rect x="105" y="15" width="10" height="10" transform="rotate(0,110,20)"/><rect x="105" y="25" width="10" height="10" transform="rotate(0,110,30)"/><rect x="105" y="35" width="10" height="10" transform="rotate(0,110,40)"/><rect x="105" y="45" width="10" height="10" transform="rotate(0,110,50)"/><rect x="105" y="65" width="10" height="10" transform="rotate(0,110,70)"/><rect x="105" y="85" width="10" height="10" transform="rotate(0,110,90)"/><rect x="105" y="105" width="10" height="10" transform="rotate(0,110,110)"/><rect x="105" y="115" width="10" height="10" transform="rotate(0,110,120)"/><rect x="105" y="135" width="10" height="10" transform="rotate(0,110,140)"/><rect x="105" y="145" width="10" height="10" transform="rotate(0,110,150)"/><rect x="105" y="155" width="10" height="10" transform="rotate(0,110,160)"/><rect x="105" y="175" width="10" height="10" transform="rotate(0,110,180)"/><rect x="105" y="185" width="10" height="10" transform="rotate(0,110,190)"/><rect x="105" y="195" width="10" height="10" transform="rotate(0,110,200)"/><rect x="105" y="205" width="10" height="10" transform="rotate(0,110,210)"/><rect x="105" y="215" width="10" height="10" transform="rotate(0,110,220)"/><rect x="105" y="225" width="10" height="10" transform="rotate(0,110,230)"/><rect x="105" y="245" width="10" height="10" transform="rotate(0,110,250)"/><rect x="105" y="255" width="10" height="10" transform="rotate(0,110,260)"/><rect x="115" y="45" width="10" height="10" transform="rotate(0,120,50)"/><rect x="115" y="55" width="10" height="10" transform="rotate(0,120,60)"/><rect x="115" y="85" width="10" height="10" transform="rotate(0,120,90)"/><rect x="115" y="105" width="10" height="10" transform="rotate(0,120,110)"/><rect x="115" y="125" width="10" height="10" transform="rotate(0,120,130)"/><rect x="115" y="165" width="10" height="10" transform="rotate(0,120,170)"/><rect x="115" y="175" width="10" height="10" transform="rotate(0,120,180)"/><rect x="115" y="195" width="10" height="10" transform="rotate(0,120,200)"/><rect x="115" y="205" width="10" height="10" transform="rotate(0,120,210)"/><rect x="115" y="245" width="10" height="10" transform="rotate(0,120,250)"/><rect x="115" y="285" width="10" height="10" transform="rotate(0,120,290)"/><rect x="125" y="5" width="10" height="10" transform="rotate(0,130,10)"/><rect x="125" y="15" width="10" height="10" transform="rotate(0,130,20)"/><rect x="125" y="25" width="10" height="10" transform="rotate(0,130,30)"/><rect x="125" y="45" width="10" height="10" transform="rotate(0,130,50)"/><rect x="125" y="65" width="10" height="10" transform="rotate(0,130,70)"/><rect x="125" y="85" width="10" height="10" transform="rotate(0,130,90)"/><rect x="125" y="95" width="10" height="10" transform="rotate(0,130,100)"/><rect x="125" y="105" width="10" height="10" transform="rotate(0,130,110)"/><rect x="125" y="115" width="10" height="10" transform="rotate(0,130,120)"/><rect x="125" y="125" width="10" height="10" transform="rotate(0,130,130)"/><rect x="125" y="135" width="10" height="10" transform="rotate(0,130,140)"/><rect x="125" y="165" width="10" height="10" transform="rotate(0,130,170)"/><rect x="125" y="205" width="10" height="10" transform="rotate(0,130,210)"/><rect x="125" y="215" width="10" height="10" transform="rotate(0,130,220)"/><rect x="125" y="225" width="10" height="10" transform="rotate(0,130,230)"/><rect x="125" y="275" width="10" height="10" transform="rotate(0,130,280)"/><rect x="135" y="5" width="10" height="10" transform="rotate(0,140,10)"/><rect x="135" y="25" width="10" height="10" transform="rotate(0,140,30)"/><rect x="135" y="55" width="10" height="10" transform="rotate(0,140,60)"/><rect x="135" y="75" width="10" height="10" transform="rotate(0,140,80)"/><rect x="135" y="95" width="10" height="10" transform="rotate(0,140,100)"/><rect x="135" y="115" width="10" height="10" transform="rotate(0,140,120)"/><rect x="135" y="145" width="10" height="10" transform="rotate(0,140,150)"/><rect x="135" y="165" width="10" height="10" transform="rotate(0,140,170)"/><rect x="135" y="225" width="10" height="10" transform="rotate(0,140,230)"/><rect x="135" y="245" width="10" height="10" transform="rotate(0,140,250)"/><rect x="135" y="265" width="10" height="10" transform="rotate(0,140,270)"/><rect x="135" y="285" width="10" height="10" transform="rotate(0,140,290)"/><rect x="145" y="35" width="10" height="10" transform="rotate(0,150,40)"/><rect x="145" y="55" width="10" height="10" transform="rotate(0,150,60)"/><rect x="145" y="65" width="10" height="10" transform="rotate(0,150,70)"/><rect x="145" y="105" width="10" height="10" transform="rotate(0,150,110)"/><rect x="145" y="145" width="10" height="10" transform="rotate(0,150,150)"/><rect x="145" y="155" width="10" height="10" transform="rotate(0,150,160)"/><rect x="145" y="165" width="10" height="10" transform="rotate(0,150,170)"/><rect x="145" y="185" width="10" height="10" transform="rotate(0,150,190)"/><rect x="145" y="195" width="10" height="10" transform="rotate(0,150,200)"/><rect x="145" y="205" width="10" height="10" transform="rotate(0,150,210)"/><rect x="145" y="225" width="10" height="10" transform="rotate(0,150,230)"/><rect x="145" y="235" width="10" height="10" transform="rotate(0,150,240)"/><rect x="145" y="255" width="10" height="10" transform="rotate(0,150,260)"/><rect x="145" y="275" width="10" height="10" transform="rotate(0,150,280)"/><rect x="145" y="285" width="10" height="10" transform="rotate(0,150,290)"/><rect x="155" y="5" width="10" height="10" transform="rotate(0,160,10)"/><rect x="155" y="85" width="10" height="10" transform="rotate(0,160,90)"/><rect x="155" y="125" width="10" height="10" transform="rotate(0,160,130)"/><rect x="155" y="165" width="10" height="10" transform="rotate(0,160,170)"/><rect x="155" y="215" width="10" height="10" transform="rotate(0,160,220)"/><rect x="155" y="245" width="10" height="10" transform="rotate(0,160,250)"/><rect x="155" y="255" width="10" height="10" transform="rotate(0,160,260)"/><rect x="155" y="265" width="10" height="10" transform="rotate(0,160,270)"/><rect x="155" y="275" width="10" height="10" transform="rotate(0,160,280)"/><rect x="155" y="285" width="10" height="10" transform="rotate(0,160,290)"/><rect x="165" y="5" width="10" height="10" transform="rotate(0,170,10)"/><rect x="165" y="25" width="10" height="10" transform="rotate(0,170,30)"/><rect x="165" y="45" width="10" height="10" transform="rotate(0,170,50)"/><rect x="165" y="65" width="10" height="10" transform="rotate(0,170,70)"/><rect x="165" y="75" width="10" height="10" transform="rotate(0,170,80)"/><rect x="165" y="85" width="10" height="10" transform="rotate(0,170,90)"/><rect x="165" y="95" width="10" height="10" transform="rotate(0,170,100)"/><rect x="165" y="105" width="10" height="10" transform="rotate(0,170,110)"/><rect x="165" y="115" width="10" height="10" transform="rotate(0,170,120)"/><rect x="165" y="135" width="10" height="10" transform="rotate(0,170,140)"/><rect x="165" y="175" width="10" height="10" transform="rotate(0,170,180)"/><rect x="165" y="185" width="10" height="10" transform="rotate(0,170,190)"/><rect x="165" y="195" width="10" height="10" transform="rotate(0,170,200)"/><rect x="165" y="205" width="10" height="10" transform="rotate(0,170,210)"/><rect x="165" y="215" width="10" height="10" transform="rotate(0,170,220)"/><rect x="165" y="255" width="10" height="10" transform="rotate(0,170,260)"/><rect x="165" y="285" width="10" height="10" transform="rotate(0,170,290)"/><rect x="175" y="5" width="10" height="10" transform="rotate(0,180,10)"/><rect x="175" y="25" width="10" height="10" transform="rotate(0,180,30)"/><rect x="175" y="35" width="10" height="10" transform="rotate(0,180,40)"/><rect x="175" y="55" width="10" height="10" transform="rotate(0,180,60)"/><rect x="175" y="95" width="10" height="10" transform="rotate(0,180,100)"/><rect x="175" y="105" width="10" height="10" transform="rotate(0,180,110)"/><rect x="175" y="125" width="10" height="10" transform="rotate(0,180,130)"/><rect x="175" y="135" width="10" height="10" transform="rotate(0,180,140)"/><rect x="175" y="145" width="10" height="10" transform="rotate(0,180,150)"/><rect x="175" y="175" width="10" height="10" transform="rotate(0,180,180)"/><rect x="175" y="215" width="10" height="10" transform="rotate(0,180,220)"/><rect x="175" y="235" width="10" height="10" transform="rotate(0,180,240)"/><rect x="175" y="245" width="10" height="10" transform="rotate(0,180,250)"/><rect x="185" y="5" width="10" height="10" transform="rotate(0,190,10)"/><rect x="185" y="15" width="10" height="10" transform="rotate(0,190,20)"/><rect x="185" y="25" width="10" height="10" transform="rotate(0,190,30)"/><rect x="185" y="45" width="10" height="10" transform="rotate(0,190,50)"/><rect x="185" y="65" width="10" height="10" transform="rotate(0,190,70)"/><rect x="185" y="75" width="10" height="10" transform="rotate(0,190,80)"/><rect x="185" y="95" width="10" height="10" transform="rotate(0,190,100)"/><rect x="185" y="105" width="10" height="10" transform="rotate(0,190,110)"/><rect x="185" y="125" width="10" height="10" transform="rotate(0,190,130)"/><rect x="185" y="145" width="10" height="10" transform="rotate(0,190,150)"/><rect x="185" y="165" width="10" height="10" transform="rotate(0,190,170)"/><rect x="185" y="185" width="10" height="10" transform="rotate(0,190,190)"/><rect x="185" y="195" width="10" height="10" transform="rotate(0,190,200)"/><rect x="185" y="255" width="10" height="10" transform="rotate(0,190,260)"/><rect x="185" y="285" width="10" height="10" transform="rotate(0,190,290)"/><rect x="195" y="5" width="10" height="10" transform="rotate(0,200,10)"/><rect x="195" y="15" width="10" height="10" transform="rotate(0,200,20)"/><rect x="195" y="25" width="10" height="10" transform="rotate(0,200,30)"/><rect x="195" y="45" width="10" height="10" transform="rotate(0,200,50)"/><rect x="195" y="85" width="10" height="10" transform="rotate(0,200,90)"/><rect x="195" y="125" width="10" height="10" transform="rotate(0,200,130)"/><rect x="195" y="135" width="10" height="10" transform="rotate(0,200,140)"/><rect x="195" y="155" width="10" height="10" transform="rotate(0,200,160)"/><rect x="195" y="165" width="10" height="10" transform="rotate(0,200,170)"/><rect x="195" y="185" width="10" height="10" transform="rotate(0,200,190)"/><rect x="195" y="205" width="10" height="10" transform="rotate(0,200,210)"/><rect x="195" y="215" width="10" height="10" transform="rotate(0,200,220)"/><rect x="195" y="225" width="10" height="10" transform="rotate(0,200,230)"/><rect x="195" y="235" width="10" height="10" transform="rotate(0,200,240)"/><rect x="195" y="245" width="10" height="10" transform="rotate(0,200,250)"/><rect x="195" y="255" width="10" height="10" transform="rotate(0,200,260)"/><rect x="195" y="265" width="10" height="10" transform="rotate(0,200,270)"/><rect x="195" y="275" width="10" height="10" transform="rotate(0,200,280)"/><rect x="205" y="5" width="10" height="10" transform="rotate(0,210,10)"/><rect x="205" y="15" width="10" height="10" transform="rotate(0,210,20)"/><rect x="205" y="25" width="10" height="10" transform="rotate(0,210,30)"/><rect x="205" y="35" width="10" height="10" transform="rotate(0,210,40)"/><rect x="205" y="55" width="10" height="10" transform="rotate(0,210,60)"/><rect x="205" y="65" width="10" height="10" transform="rotate(0,210,70)"/><rect x="205" y="75" width="10" height="10" transform="rotate(0,210,80)"/><rect x="205" y="85" width="10" height="10" transform="rotate(0,210,90)"/><rect x="205" y="95" width="10" height="10" transform="rotate(0,210,100)"/><rect x="205" y="125" width="10" height="10" transform="rotate(0,210,130)"/><rect x="205" y="135" width="10" height="10" transform="rotate(0,210,140)"/><rect x="205" y="145" width="10" height="10" transform="rotate(0,210,150)"/><rect x="205" y="165" width="10" height="10" transform="rotate(0,210,170)"/><rect x="205" y="175" width="10" height="10" transform="rotate(0,210,180)"/><rect x="205" y="185" width="10" height="10" transform="rotate(0,210,190)"/><rect x="205" y="195" width="10" height="10" transform="rotate(0,210,200)"/><rect x="205" y="205" width="10" height="10" transform="rotate(0,210,210)"/><rect x="205" y="215" width="10" height="10" transform="rotate(0,210,220)"/><rect x="205" y="225" width="10" height="10" transform="rotate(0,210,230)"/><rect x="205" y="235" width="10" height="10" transform="rotate(0,210,240)"/><rect x="205" y="245" width="10" height="10" transform="rotate(0,210,250)"/><rect x="205" y="265" width="10" height="10" transform="rotate(0,210,270)"/><rect x="205" y="275" width="10" height="10" transform="rotate(0,210,280)"/><rect x="215" y="85" width="10" height="10" transform="rotate(0,220,90)"/><rect x="215" y="105" width="10" height="10" transform="rotate(0,220,110)"/><rect x="215" y="135" width="10" height="10" transform="rotate(0,220,140)"/><rect x="215" y="155" width="10" height="10" transform="rotate(0,220,160)"/><rect x="215" y="175" width="10" height="10" transform="rotate(0,220,180)"/><rect x="215" y="185" width="10" height="10" transform="rotate(0,220,190)"/><rect x="215" y="205" width="10" height="10" transform="rotate(0,220,210)"/><rect x="215" y="245" width="10" height="10" transform="rotate(0,220,250)"/><rect x="215" y="255" width="10" height="10" transform="rotate(0,220,260)"/><rect x="215" y="265" width="10" height="10" transform="rotate(0,220,270)"/><rect x="225" y="105" width="10" height="10" transform="rotate(0,230,110)"/><rect x="225" y="115" width="10" height="10" transform="rotate(0,230,120)"/><rect x="225" y="125" width="10" height="10" transform="rotate(0,230,130)"/><rect x="225" y="155" width="10" height="10" transform="rotate(0,230,160)"/><rect x="225" y="165" width="10" height="10" transform="rotate(0,230,170)"/><rect x="225" y="195" width="10" height="10" transform="rotate(0,230,200)"/><rect x="225" y="205" width="10" height="10" transform="rotate(0,230,210)"/><rect x="225" y="225" width="10" height="10" transform="rotate(0,230,230)"/><rect x="225" y="245" width="10" height="10" transform="rotate(0,230,250)"/><rect x="225" y="265" width="10" height="10" transform="rotate(0,230,270)"/><rect x="235" y="85" width="10" height="10" transform="rotate(0,240,90)"/><rect x="235" y="95" width="10" height="10" transform="rotate(0,240,100)"/><rect x="235" y="115" width="10" height="10" transform="rotate(0,240,120)"/><rect x="235" y="145" width="10" height="10" transform="rotate(0,240,150)"/><rect x="235" y="155" width="10" height="10" transform="rotate(0,240,160)"/><rect x="235" y="165" width="10" height="10" transform="rotate(0,240,170)"/><rect x="235" y="185" width="10" height="10" transform="rotate(0,240,190)"/><rect x="235" y="195" width="10" height="10" transform="rotate(0,240,200)"/><rect x="235" y="205" width="10" height="10" transform="rotate(0,240,210)"/><rect x="235" y="245" width="10" height="10" transform="rotate(0,240,250)"/><rect x="235" y="255" width="10" height="10" transform="rotate(0,240,260)"/><rect x="235" y="275" width="10" height="10" transform="rotate(0,240,280)"/><rect x="245" y="85" width="10" height="10" transform="rotate(0,250,90)"/><rect x="245" y="115" width="10" height="10" transform="rotate(0,250,120)"/><rect x="245" y="135" width="10" height="10" transform="rotate(0,250,140)"/><rect x="245" y="155" width="10" height="10" transform="rotate(0,250,160)"/><rect x="245" y="175" width="10" height="10" transform="rotate(0,250,180)"/><rect x="245" y="195" width="10" height="10" transform="rotate(0,250,200)"/><rect x="245" y="205" width="10" height="10" transform="rotate(0,250,210)"/><rect x="245" y="215" width="10" height="10" transform="rotate(0,250,220)"/><rect x="245" y="225" width="10" height="10" transform="rotate(0,250,230)"/><rect x="245" y="235" width="10" height="10" transform="rotate(0,250,240)"/><rect x="245" y="245" width="10" height="10" transform="rotate(0,250,250)"/><rect x="255" y="85" width="10" height="10" transform="rotate(0,260,90)"/><rect x="255" y="105" width="10" height="10" transform="rotate(0,260,110)"/><rect x="255" y="135" width="10" height="10" transform="rotate(0,260,140)"/><rect x="255" y="175" width="10" height="10" transform="rotate(0,260,180)"/><rect x="255" y="185" width="10" height="10" transform="rotate(0,260,190)"/><rect x="255" y="235" width="10" height="10" transform="rotate(0,260,240)"/><rect x="255" y="255" width="10" height="10" transform="rotate(0,260,260)"/><rect x="255" y="275" width="10" height="10" transform="rotate(0,260,280)"/><rect x="265" y="95" width="10" height="10" transform="rotate(0,270,100)"/><rect x="265" y="105" width="10" height="10" transform="rotate(0,270,110)"/><rect x="265" y="135" width="10" height="10" transform="rotate(0,270,140)"/><rect x="265" y="155" width="10" height="10" transform="rotate(0,270,160)"/><rect x="265" y="175" width="10" height="10" transform="rotate(0,270,180)"/><rect x="265" y="205" width="10" height="10" transform="rotate(0,270,210)"/><rect x="265" y="215" width="10" height="10" transform="rotate(0,270,220)"/><rect x="265" y="235" width="10" height="10" transform="rotate(0,270,240)"/><rect x="265" y="245" width="10" height="10" transform="rotate(0,270,250)"/><rect x="265" y="275" width="10" height="10" transform="rotate(0,270,280)"/><rect x="265" y="285" width="10" height="10" transform="rotate(0,270,290)"/><rect x="275" y="85" width="10" height="10" transform="rotate(0,280,90)"/><rect x="275" y="95" width="10" height="10" transform="rotate(0,280,100)"/><rect x="275" y="105" width="10" height="10" transform="rotate(0,280,110)"/><rect x="275" y="115" width="10" height="10" transform="rotate(0,280,120)"/><rect x="275" y="125" width="10" height="10" transform="rotate(0,280,130)"/><rect x="275" y="165" width="10" height="10" transform="rotate(0,280,170)"/><rect x="275" y="185" width="10" height="10" transform="rotate(0,280,190)"/><rect x="275" y="195" width="10" height="10" transform="rotate(0,280,200)"/><rect x="275" y="245" width="10" height="10" transform="rotate(0,280,250)"/><rect x="275" y="265" width="10" height="10" transform="rotate(0,280,270)"/><rect x="275" y="285" width="10" height="10" transform="rotate(0,280,290)"/><rect x="285" y="105" width="10" height="10" transform="rotate(0,290,110)"/><rect x="285" y="115" width="10" height="10" transform="rotate(0,290,120)"/><rect x="285" y="125" width="10" height="10" transform="rotate(0,290,130)"/><rect x="285" y="155" width="10" height="10" transform="rotate(0,290,160)"/><rect x="285" y="205" width="10" height="10" transform="rotate(0,290,210)"/><rect x="285" y="235" width="10" height="10" transform="rotate(0,290,240)"/><rect x="285" y="245" width="10" height="10" transform="rotate(0,290,250)"/><rect x="285" y="255" width="10" height="10" transform="rotate(0,290,260)"/><path clip-rule="evenodd" d="M 5 5v 70h 70v -70zM 15 15h 50v 50h -50z" transform="rotate(0,40,40)"/><rect x="25" y="25" width="30" height="30" transform="rotate(0,40,40)"/><path clip-rule="evenodd" d="M 225 5v 70h 70v -70zM 235 15h 50v 50h -50z" transform="rotate(90,260,40)"/><rect x="245" y="25" width="30" height="30" transform="rotate(90,260,40)"/><path clip-rule="evenodd" d="M 5 225v 70h 70v -70zM 15 235h 50v 50h -50z" transform="rotate(-90,40,260)"/><rect x="25" y="245" width="30" height="30" transform="rotate(-90,40,260)"/></clipPath></defs><rect x="0" y="0" height="300" width="300" clip-path="url('#clip-path-background-color')" fill="transparent" style="transform: translate(0px, 0px) scale(1);"/><rect x="0" y="0" height="300" width="300" clip-path="url('#clip-path-dot-color')" fill="#000000" style="transform: translate(0px, 0px) scale(1);"/></svg></svg>