<svg xmlns="http://www.w3.org/2000/svg" viewBox="0 0 77.55 79.51"><path d="M65.54,55.49A12,12,0,0,0,53.64,66H16.34a12.08,12.08,0,0,1,0-24.16H26.87a12,12,0,0,0,23.81,0H61.12A15.1,15.1,0,0,0,76.2,26.76V25.59A15.09,15.09,0,0,0,61.12,10.51H23.91a12,12,0,1,0,0,3H61.12A12.09,12.09,0,0,1,73.2,25.59v1.17A12.09,12.09,0,0,1,61.12,38.84H50.68a12,12,0,0,0-23.81,0H16.34a15.08,15.08,0,0,0,0,30.16h37.3a12,12,0,1,0,11.9-13.51ZM12,21a9,9,0,1,1,9-9A9,9,0,0,1,12,21ZM38.77,31.33a9,9,0,1,1-9,9A9,9,0,0,1,38.77,31.33ZM65.54,76.51a9,9,0,1,1,9-9A9,9,0,0,1,65.54,76.51Z"/></svg>